<?xml version="1.0" encoding="UTF-8"?>
<svg width="14px" height="16px" viewBox="0 0 14 16" version="1.1" xmlns="http://www.w3.org/2000/svg" xmlns:xlink="http://www.w3.org/1999/xlink">
    <g id="学生端" stroke="none" stroke-width="1" fill="none" fill-rule="evenodd">
        <g id="学生端终稿" transform="translate(-945.000000, -430.000000)" fill="#FFFFFF" fill-rule="nonzero">
            <g id="编组-17" transform="translate(378.000000, 68.000000)">
                <g id="编组-11" transform="translate(500.000000, 354.000000)">
                    <g id="编组-10" transform="translate(56.000000, 8.000000)">
                        <g id="批注" transform="translate(11.000000, 0.000000)">
                            <path d="M12.0882275,0 L1.47668688,0 C0.663936736,0 0,0.726896254 0,1.62263849 L0,15.4279437 C0,15.6260047 0.102599761,15.809935 0.270979322,15.9142254 C0.439358883,16.0185159 0.649689423,16.0283425 0.827059124,15.9402053 L3.72892055,14.4949981 L6.51917192,15.9344817 C6.66798533,16.0117502 6.8396931,16.0203356 6.9942301,15.957376 L10.0420431,14.735389 L12.755026,15.9487907 C12.9329972,16.026457 13.1379639,16.0103602 13.3016291,15.9058637 C13.4647515,15.7999772 13.5620618,15.6196841 13.5620618,15.4250819 L13.5620618,1.62263849 C13.5649144,0.729758051 12.9009776,0 12.0882275,0 L12.0882275,0 Z M12.4201958,14.5436487 L10.2910194,13.5935323 C10.1494332,13.5306717 9.9884775,13.5275764 9.84457919,13.5849469 L6.81393694,14.7983485 L3.9979294,13.344556 C3.83554665,13.2612863 3.64323719,13.2602238 3.47994427,13.3416942 L1.14758031,14.5035835 L1.14758031,1.62263849 C1.14758031,1.34218245 1.32214988,1.14471851 1.47954868,1.14471851 L12.0910893,1.14471851 C12.2484881,1.14471851 12.4230576,1.33932066 12.4230576,1.62263849 L12.4230576,14.5436487 L12.4201958,14.5436487 Z" id="形状"></path>
                            <path d="M3.50856224,4.19539334 L10.0563521,4.19539334 L10.0563521,5.34011185 L3.50856224,5.34011185 L3.50856224,4.19539334 Z M3.50856224,7.34336925 L10.0563521,7.34336925 L10.0563521,8.48808776 L3.50856224,8.48808776 L3.50856224,7.34336925 Z" id="形状"></path>
                        </g>
                    </g>
                </g>
            </g>
        </g>
    </g>
</svg>